#!OML:ASF H:\ManfredETheater\Project 1\Capture day 1\Session 1\subject.ASF
:FULLY-SPECIFIED
:DEGREES
166
root -0.836027 18.057 -14.7298 -174.216 -6.86862 -188.341
lowerback 4.33286 -3.97637 -7.12671
upperback -2.03561 -5.79695 -0.181154
thorax -3.8651 -2.71335 4.19521
lowerneck -16.3537 -0.305199 -1.7667
upperneck 15.3992 0.739774 -2.9776
head 7.44056 0.0293398 -0.597778
rclavicle 8.92295e-014 1.19271e-015
rhumerus -83.1191 6.03386 -77.7276
rradius 99.1491
rwrist -4.38329
rhand -24.3542 10.4521
rfingers 7.12502
rthumb 2.13528 -19.517
lclavicle 8.92295e-014 1.19271e-015
lhumerus -50.4998 -24.5822 102.381
lradius 120.506
lwrist 11.0588
lhand -24.2445 -19.5736
lfingers 7.12502
lthumb 2.24127 10.3944
rfemur -27.1349 -2.44478 18.4949
rtibia 36.2693
rfoot -7.26864 -7.26184
rtoes -16.9971
lfemur 0.532485 -5.77079 -18.8838
ltibia 82.6955
lfoot 4.00723 -15.4779
ltoes -7.18904
167
root -0.816549 17.8561 -15.1483 -174.606 -6.54224 -186.645
lowerback 4.91446 -3.66346 -5.74082
upperback -2.05124 -5.28715 0.36106
thorax -4.33551 -2.4616 4.01251
lowerneck -16.136 -0.349175 -1.67899
upperneck 15.121 0.671514 -3.14332
head 7.31208 -0.00792499 -0.672352
rclavicle 3.07122e-014 1.90833e-014
rhumerus -80.7356 5.42798 -78.216
rradius 98.403
rwrist -4.5243
rhand -24.4538 9.99965
rfingers 7.12502
rthumb 2.03905 -19.9704
lclavicle 3.07122e-014 1.90833e-014
lhumerus -51.0144 -23.033 102.23
lradius 119.345
lwrist 11.6154
lhand -23.9647 -19.3164
lfingers 7.12502
lthumb 2.51146 10.6486
rfemur -26.0109 -1.19729 20.8065
rtibia 37.7998
rfoot -10.6388 -8.28622
rtoes -13.3082
lfemur -1.90871 -4.88403 -16.0014
ltibia 86.909
lfoot 2.46605 -15.4849
ltoes -7.98641
168
root -0.799662 17.6689 -15.5541 -174.883 -6.10069 -184.784
lowerback 5.4826 -3.33233 -4.1878
upperback -2.05497 -4.7267 0.963697
thorax -4.78804 -2.20043 3.77995
lowerneck -16.0672 -0.375608 -1.61624
upperneck 14.8601 0.626738 -3.26606
head 7.21515 -0.0342273 -0.726507
rclavicle -4.90501e-014 -6.36111e-015
rhumerus -77.9162 4.8834 -78.8086
rradius 97.3326
rwrist -4.65005
rhand -24.4561 9.55873
rfingers 7.12502
rthumb 2.03683 -20.4113
lclavicle -4.90501e-014 -6.36111e-015
lhumerus -51.2891 -21.2221 101.917
lradius 117.889
lwrist 11.9948
lhand -23.7152 -19.0257
lfingers 7.12502
lthumb 2.75236 10.9363
rfemur -25.0564 0.230083 23.2889
rtibia 39.25
rfoot -13.3615 -9.48188
rtoes -10.1598
lfemur -4.69829 -3.85802 -12.941
ltibia 90.9956
lfoot 1.01674 -15.692
ltoes -8.36662
169
root -0.786037 17.4934 -15.9462 -175.056 -5.59634 -182.933
lowerback 6.03977 -2.99673 -2.64648
upperback -2.0304 -4.15177 1.57452
thorax -5.191 -1.94575 3.54519
lowerneck -16.1303 -0.387176 -1.59592
upperneck 14.6066 0.60171 -3.32669
head 7.14332 -0.0503555 -0.751781
rclavicle 3.86139e-014 -1.19271e-014
rhumerus -74.6705 4.4532 -79.5147
rradius 95.9379
rwrist -4.73762
rhand -24.3963 9.14586
rfingers 7.12502
rthumb 2.09461 -20.8236
lclavicle 3.86139e-014 -1.19271e-014
lhumerus -51.3607 -19.1761 101.441
lradius 116.122
lwrist 12.1555
lhand -23.563 -18.7153
lfingers 7.12502
lthumb 2.89942 11.2447
rfemur -24.3043 1.60233 25.7619
rtibia 40.8202
rfoot -15.868 -11.025
rtoes -8.88898
lfemur -7.8051 -2.73499 -9.95116
ltibia 94.9432
lfoot -0.405475 -16.0123
ltoes -8.52764
170
root -0.775821 17.3304 -16.3261 -175.138 -5.08515 -181.277
lowerback 6.57302 -2.66926 -1.2959
upperback -1.96511 -3.59742 2.13798
thorax -5.51357 -1.70825 3.35488
lowerneck -16.2977 -0.392825 -1.62723
upperneck 14.3452 0.586034 -3.32509
head 7.0866 -0.0610308 -0.747761
rclavicle -3.12092e-014 2.46493e-014
rhumerus -71.0573 4.17019 -80.3255
rradius 94.2846
rwrist -4.74663
rhand -24.3189 8.78173
rfingers 7.12502
rthumb 2.16938 -21.187
lclavicle -3.12092e-014 2.46493e-014
lhumerus -51.3027 -16.963 100.834
lradius 114.068
lwrist 12.124
lhand -23.5591 -18.3745
lfingers 7.12502
lthumb 2.90315 11.5855
rfemur -23.611 2.76591 27.9996
rtibia 42.3198
rfoot -18.0783 -12.7087
rtoes -9.22637
lfemur -11.1932 -1.57855 -7.31503
ltibia 98.6275
lfoot -1.74257 -16.3212
ltoes -8.43796
171
root -0.768347 17.1807 -16.6974 -175.185 -4.62951 -179.946
lowerback 7.09661 -2.36345 -0.267125
upperback -1.84806 -3.09598 2.61757
thorax -5.74872 -1.49503 3.25162
lowerneck -16.5238 -0.398084 -1.70394
upperneck 14.0624 0.576399 -3.29018
head 7.03284 -0.0686542 -0.725036
rclavicle 2.55935e-014 -1.27222e-014
rhumerus -67.1897 4.06397 -81.2202
rradius 92.4998
rwrist -4.62128
rhand -24.2553 8.47057
rfingers 7.12502
rthumb 2.23076 -21.4975
lclavicle 2.55935e-014 -1.27222e-014
lhumerus -51.204 -14.6762 100.14
lradius 111.786
lwrist 11.9465
lhand -23.7333 -18.0243
lfingers 7.12502
lthumb 2.73489 11.938
rfemur -22.8574 3.55298 29.8614
rtibia 43.7122
rfoot -20.0629 -14.0108
rtoes -9.82217
lfemur -14.781 -0.479888 -5.26052
ltibia 101.961
lfoot -2.96829 -16.4811
ltoes -8.02998
172
root -0.761287 17.0472 -17.0646 -175.225 -4.26504 -178.997
lowerback 7.60213 -2.08233 0.380645
upperback -1.68581 -2.6591 2.99783
thorax -5.90191 -1.30488 3.25657
lowerneck -16.7572 -0.405144 -1.81166
upperneck 13.7511 0.572376 -3.2531
head 6.97104 -0.0739614 -0.69587
rclavicle -2.36057e-014 2.70347e-014
rhumerus -63.2109 4.14041 -82.1777
rradius 90.7448
rwrist -4.3552
rhand -24.1958 8.22603
rfingers 7.12502
rthumb 2.28828 -21.7414
lclavicle -2.36057e-014 2.70347e-014
lhumerus -51.1765 -12.446 99.4146
lradius 109.4
lwrist 11.725
lhand -24.0399 -17.7039
lfingers 7.12502
lthumb 2.4388 12.2619
rfemur -21.9857 3.91784 31.2694
rtibia 44.9289
rfoot -21.9279 -14.8726
rtoes -10.5299
lfemur -18.513 0.494673 -3.90633
ltibia 104.855
lfoot -4.13186 -16.4272
ltoes -7.65072
173
root -0.752277 16.9326 -17.4329 -175.288 -4.02288 -178.424
lowerback 8.08374 -1.82816 0.652571
upperback -1.48161 -2.29228 3.28337
thorax -5.97911 -1.13752 3.37466
lowerneck -16.9591 -0.418535 -1.91277
upperneck 13.3979 0.569817 -3.27672
head 6.8906 -0.0811606 -0.686988
rclavicle 2.06736e-014 -2.38542e-015
rhumerus -59.2663 4.39701 -83.1768
rradius 89.2295
rwrist -3.99064
rhand -24.2018 8.1172
rfingers 7.12502
rthumb 2.28244 -21.8503
lclavicle 2.06736e-014 -2.38542e-015
lhumerus -51.3063 -10.4314 98.7289
lradius 107.074
lwrist 11.6458
lhand -24.4197 -17.4345
lfingers 7.12502
lthumb 2.07206 12.5352
rfemur -20.9053 3.83216 32.2268
rtibia 45.8565
rfoot -23.6753 -15.3858
rtoes -11.3956
lfemur -22.3127 1.27978 -3.2776
ltibia 107.224
lfoot -5.16657 -16.0911
ltoes -7.23125
